<svg xmlns="http://www.w3.org/2000/svg" viewBox="0 0 100 100">
  <defs>
    <linearGradient id="grad" x1="0%" y1="0%" x2="100%" y2="100%">
      <stop offset="0%" style="stop-color:#f97316;stop-opacity:1" />
      <stop offset="100%" style="stop-color:#ea580c;stop-opacity:1" />
    </linearGradient>
  </defs>
  <rect width="100" height="100" rx="22" fill="url(#grad)"/>
  <path d="M50 25 C40 25 32 30 32 40 L32 70 C32 72 34 74 36 74 L44 74 C46 74 48 72 48 70 L48 55 C48 53 50 51 52 51 L52 51 C54 51 56 53 56 55 L56 70 C56 72 58 74 60 74 L68 74 C70 74 72 72 72 70 L72 40 C72 30 64 25 54 25 Z" fill="white" opacity="0.95"/>
  <circle cx="42" cy="38" r="4" fill="white" opacity="0.7"/>
  <circle cx="58" cy="38" r="4" fill="white" opacity="0.7"/>
</svg>

